name C:\Users\Nicos\Documents\OpenSimProjects\SprintingProject\Study1\PredictiveResults\IC_pred_Sprinting_optimum_26-October-2023__23-37-47___IKTD_Minus_4_p02_maxVel_01.mot
datacolumns 38
datarows 8
range 0.10880308 0.11510900
endheader
                time	/jointset/ground_pelvis/pelvis_tilt/value	/jointset/ground_pelvis/pelvis_list/value	/jointset/ground_pelvis/pelvis_rotation/value	/jointset/ground_pelvis/pelvis_tx/value	/jointset/ground_pelvis/pelvis_ty/value	/jointset/ground_pelvis/pelvis_tz/value	/jointset/hip_r/hip_flexion_r/value	/jointset/hip_r/hip_adduction_r/value	/jointset/hip_r/hip_rotation_r/value	/jointset/knee_r/knee_angle_r/value	/jointset/ankle_r/ankle_angle_r/value	/jointset/subtalar_r/subtalar_angle_r/value	/jointset/mtp_r/mtp_angle_r/value	/jointset/hip_l/hip_flexion_l/value	/jointset/hip_l/hip_adduction_l/value	/jointset/hip_l/hip_rotation_l/value	/jointset/knee_l/knee_angle_l/value	/jointset/ankle_l/ankle_angle_l/value	/jointset/subtalar_l/subtalar_angle_l/value	/jointset/mtp_l/mtp_angle_l/value	/jointset/back/lumbar_extension/value	/jointset/back/lumbar_bending/value	/jointset/back/lumbar_rotation/value	/jointset/acromial_r/arm_flex_r/value	/jointset/acromial_r/arm_add_r/value	/jointset/acromial_r/arm_rot_r/value	/jointset/elbow_r/elbow_flex_r/value	/jointset/radioulnar_r/pro_sup_r/value	/jointset/radius_hand_r/wrist_flex_r/value	/jointset/radius_hand_r/wrist_dev_r/value	/jointset/acromial_l/arm_flex_l/value	/jointset/acromial_l/arm_add_l/value	/jointset/acromial_l/arm_rot_l/value	/jointset/elbow_l/elbow_flex_l/value	/jointset/radioulnar_l/pro_sup_l/value	/jointset/radius_hand_l/wrist_flex_l/value	/jointset/radius_hand_l/wrist_dev_l/value	
          0.10880308	         -8.63255091	          4.24670366	        -17.10933200	          0.64204831	          0.95815306	          0.30684264	          6.91072342	         -8.82322988	          9.06712363	        -28.77031393	         10.91577655	         -8.66773475	         12.43300335	         69.36139202	        -10.09331396	          0.10158998	       -128.33962757	         -0.13188543	        -22.54688172	         12.04544870	        -10.59596794	          0.30807128	         10.15341345	         61.78558917	         -9.38611157	         -8.86507692	        127.73759396	         85.53007793	        -18.66763343	          8.40720652	        -50.71127906	         -0.85146685	         -3.21442363	         93.29496580	         64.32469860	        -11.36787374	          8.80042166	
          0.11028571	         -8.66998694	          4.48366190	        -16.89019301	          0.66018620	          0.95778175	          0.30642591	          6.43140668	         -9.36533607	          8.75587614	        -29.51071897	          9.88315162	         -8.85175489	         11.66675239	         70.41415553	         -9.75631411	          0.22851805	       -127.90573038	         -0.18740965	        -22.52420719	         12.64513980	        -10.38273086	          0.08587678	         10.06198703	         63.14767283	         -8.83663071	         -8.13360453	        127.74965303	         85.09759080	        -18.54544990	          8.50919203	        -52.29353600	         -0.56305855	         -3.53417266	         94.22659729	         63.69448281	        -11.28701613	          8.75857438	
          0.11028571	         -8.66998694	          4.48366190	        -16.89019301	          0.66018620	          0.95778175	          0.30642591	          6.43140668	         -9.36533607	          8.75587614	        -29.51071897	          9.88315162	         -8.85175489	         11.66675239	         70.41415553	         -9.75631411	          0.22851805	       -127.90573038	         -0.18740965	        -22.52420719	         12.64513980	        -10.38273086	          0.08587678	         10.06198703	         63.14767283	         -8.83663071	         -8.13360453	        127.74965303	         85.09759080	        -18.54544990	          8.50919203	        -52.29353600	         -0.56305855	         -3.53417266	         94.22659729	         63.69448281	        -11.28701613	          8.75857438	
          0.11093318	         -8.69000053	          4.58234114	        -16.79483746	          0.66809834	          0.95762662	          0.30625176	          6.23200199	         -9.59218282	          8.62354138	        -29.84006228	          9.39296049	         -8.94620795	         11.30178378	         70.87048311	         -9.61728661	          0.28319123	       -127.70286064	         -0.21569240	        -22.51127812	         12.89141604	        -10.28878156	         -0.00701103	         10.02435074	         63.72833845	         -8.59770612	         -7.81864477	        127.72679327	         84.90984575	        -18.49057763	          8.54995914	        -52.97543015	         -0.44745092	         -3.66441693	         94.61611832	         63.41902965	        -11.25478918	          8.74003430	
          0.11297891	         -8.75414916	          4.86752230	        -16.50282548	          0.69305746	          0.95718478	          0.30574295	          5.62558750	        -10.26424804	          8.23153358	        -30.89833585	          7.69175923	         -9.31111427	          9.97925800	         72.28039206	         -9.21962560	          0.45436095	       -127.00864238	         -0.32223020	        -22.45861077	         13.59788770	        -10.00713255	         -0.28150720	          9.92226733	         65.50929640	         -7.84651103	         -6.86251053	        127.54012842	         84.32521437	        -18.31164235	          8.66252077	        -55.08611774	         -0.12259341	         -4.03218332	         95.76761105	         62.54843745	        -11.16528463	          8.68015517	
          0.11446154	         -8.79223200	          5.04668259	        -16.30565634	          0.71110475	          0.95692319	          0.30541871	          5.19895524	        -10.70919613	          7.97776263	        -31.67671489	          6.33248666	         -9.62742857	          8.84380914	         73.25929135	         -8.97515401	          0.57573812	       -126.45473072	         -0.41559784	        -22.41145509	         14.03650987	         -9.82896083	         -0.46295889	          9.86859465	         66.75143894	         -7.30740062	         -6.21319221	        127.29455503	         83.91147320	        -18.17729263	          8.72862909	        -56.56833385	          0.07543248	         -4.25220594	         96.51814990	         61.91786338	        -11.11211346	          8.63564049	
          0.11446154	         -8.79223200	          5.04668259	        -16.30565634	          0.71110475	          0.95692319	          0.30541871	          5.19895524	        -10.70919613	          7.97776263	        -31.67671489	          6.33248666	         -9.62742857	          8.84380914	         73.25929135	         -8.97515401	          0.57573812	       -126.45473072	         -0.41559784	        -22.41145509	         14.03650987	         -9.82896083	         -0.46295889	          9.86859465	         66.75143894	         -7.30740062	         -6.21319221	        127.29455503	         83.91147320	        -18.17729263	          8.72862909	        -56.56833385	          0.07543248	         -4.25220594	         96.51814990	         61.91786338	        -11.11211346	          8.63564049	
          0.11510900	         -8.80457991	          5.11727577	        -16.22470260	          0.71897410	          0.95682720	          0.30528996	          5.01396601	        -10.89264766	          7.87613645	        -32.01826599	          5.70975451	         -9.77637185	          8.31298393	         73.67259274	         -8.88083248	          0.62767613	       -126.19937234	         -0.46061817	        -22.38913432	         14.20774487	         -9.76053296	         -0.53780094	          9.85148022	         67.28166073	         -7.07394373	         -5.94221440	        127.15780818	         83.73389462	        -18.11755653	          8.75344920	        -57.20162908	          0.15231543	         -4.33474978	         96.82146534	         61.64271158	        -11.09197717	          8.61595043	
